# xmcd
# 
# Track frame offsets:
#     150
#     17451
#     35505
#     48601
#     66959
# 
# Disc length: 1250
# 
# Revision: 0
# Processed by: cddbd v1.5.2PL0 Copyright (c) Steve Scherf et al.
# Submitted via: fre:ac v1.0.31
# 
DISCID=3c04e005
DTITLE=Strangefruit - Between the Earth and Sea EP
DYEAR=2013
DGENRE=Indie
TTITLE0=Tell Me
TTITLE1=Falling
TTITLE2=Ghosts
TTITLE3=Slowly Drift Away
TTITLE4=Sea of Fog
EXTD=
EXTT0=
EXTT1=
EXTT2=
EXTT3=
EXTT4=
PLAYORDER=
